<svg width="78" height="29" viewBox="0 0 78 29" fill="none" xmlns="http://www.w3.org/2000/svg">
<g opacity="0.5">
<path d="M8.41993 14.3424H20.3277C23.6136 14.3424 26.2819 17.0041 26.2819 20.2834C26.2819 23.562 23.6143 26.2244 20.3277 26.2244H2.4657V20.2834C2.4657 17.0048 5.13333 14.3424 8.41993 14.3424Z" fill="#22FFD5"/>
<path d="M24.5248 16.0733L12.6289 4.20136C10.3039 1.88101 6.53438 1.8809 4.2095 4.2011C1.88461 6.52131 1.88473 10.2832 4.20975 12.6036L16.1056 24.4755C18.4306 26.7959 22.2001 26.796 24.525 24.4758C26.8499 22.1556 26.8498 18.3937 24.5248 16.0733Z" fill="#30BFEA"/>
<path d="M20.3277 2.46106H8.41993C5.1315 2.46106 2.4657 5.12077 2.4657 8.40168C2.4657 11.6826 5.1315 14.3423 8.41993 14.3423H20.3277C23.6161 14.3423 26.2819 11.6826 26.2819 8.40168C26.2819 5.12077 23.6161 2.46106 20.3277 2.46106Z" fill="#3E7EFF"/>
<path d="M33.958 14.3423H45.8658C49.1516 14.3423 51.82 17.004 51.82 20.2833C51.82 23.5618 49.1523 26.2242 45.8658 26.2242H28.0038V20.2833C28.0038 17.0047 30.6714 14.3423 33.958 14.3423Z" fill="#22FFD5"/>
<path d="M50.0637 16.0735L38.1678 4.2016C35.8428 1.88126 32.0733 1.88114 29.7484 4.20135C27.4236 6.52155 27.4237 10.2835 29.7487 12.6038L41.6446 24.4758C43.9696 26.7961 47.7391 26.7962 50.064 24.476C52.3888 22.1558 52.3887 18.3939 50.0637 16.0735Z" fill="#30BFEA"/>
<path d="M45.8667 2.46094H33.959C30.6706 2.46094 28.0048 5.12064 28.0048 8.40156C28.0048 11.6825 30.6706 14.3422 33.959 14.3422H45.8667C49.1552 14.3422 51.821 11.6825 51.821 8.40156C51.821 5.12064 49.1552 2.46094 45.8667 2.46094Z" fill="#3E7EFF"/>
<path d="M65.4496 8.40216V20.2834C65.4496 23.562 62.782 26.2244 59.4954 26.2244H53.5412V8.40216C53.5412 5.12359 56.2088 2.46118 59.4954 2.46118C62.7813 2.46118 65.4496 5.12287 65.4496 8.40216Z" fill="#22FFD5"/>
<path d="M53.5422 8.4021H71.4042C74.6901 8.4021 77.3584 11.0638 77.3584 14.3431C77.3584 17.6216 74.6908 20.2841 71.4042 20.2841H59.4965C56.2106 20.2841 53.5422 17.6224 53.5422 14.3431V8.4021Z" fill="#30BFEA"/>
<path d="M71.4043 2.46106H59.4965C56.2081 2.46106 53.5423 5.12077 53.5423 8.40168C53.5423 11.6826 56.2081 14.3423 59.4965 14.3423H71.4043C74.6927 14.3423 77.3585 11.6826 77.3585 8.40168C77.3585 5.12077 74.6927 2.46106 71.4043 2.46106Z" fill="#3E7EFF"/>
</g>
</svg>
