<svg width="572" height="253" viewBox="0 0 572 253" fill="none" xmlns="http://www.w3.org/2000/svg">
<path d="M537.273 69.1767C556.45 69.1767 572 53.7092 572 34.634C572 15.5589 556.45 0.0978547 537.273 0.0978547H213.643L213.558 0L213.453 0.0978547H47.4534C28.2766 0.0978547 12.7267 15.5654 12.7267 34.6406C12.7267 44.1259 16.5699 52.7111 22.7938 58.9542L130.751 182.923H34.7267C15.5499 182.923 0 198.391 0 217.466C0 236.541 15.5499 252.008 34.7267 252.008H190.912L191.777 253L192.984 252.008H357.619C376.796 252.008 392.346 236.541 392.346 217.466C392.346 208.502 388.909 200.335 383.282 194.196L274.033 69.1833H338.272L473.237 227.617C479.396 237.258 490.223 243.658 502.56 243.658C521.737 243.658 537.286 228.191 537.286 209.115C537.286 201.437 534.761 194.346 530.498 188.605L530.813 188.344L503.668 156.476H526.262C545.438 156.476 560.988 141.009 560.988 121.933C560.988 102.858 545.438 87.3908 526.262 87.3908H444.813L429.296 69.1767H537.286H537.273ZM281.824 182.917H222.608L123.557 69.1767H183.061L281.824 182.917Z" fill="#F7347E"/>
</svg>
