<svg width="27" height="27" viewBox="0 0 27 27" fill="none" xmlns="http://www.w3.org/2000/svg">
<path d="M13.5 2.43976C17.0783 2.43976 17.5663 2.43976 19.0301 2.43976C20.3313 2.43976 20.9819 2.76506 21.4699 2.92771C22.1205 3.25301 22.6084 3.41566 23.0964 3.90362C23.5843 4.39157 23.9096 4.87952 24.0723 5.53012C24.2349 6.01807 24.3976 6.66868 24.5602 7.96988C24.5602 9.43374 24.5602 9.75904 24.5602 13.5C24.5602 17.241 24.5602 17.5663 24.5602 19.0301C24.5602 20.3313 24.2349 20.9819 24.0723 21.4699C23.747 22.1205 23.5843 22.6084 23.0964 23.0964C22.6084 23.5843 22.1205 23.9096 21.4699 24.0723C20.9819 24.2349 20.3313 24.3976 19.0301 24.5602C17.5663 24.5602 17.241 24.5602 13.5 24.5602C9.75904 24.5602 9.43374 24.5602 7.96988 24.5602C6.66868 24.5602 6.01807 24.2349 5.53012 24.0723C4.87952 23.747 4.39157 23.5843 3.90362 23.0964C3.41566 22.6084 3.09036 22.1205 2.92771 21.4699C2.76506 20.9819 2.60241 20.3313 2.43976 19.0301C2.43976 17.5663 2.43976 17.241 2.43976 13.5C2.43976 9.75904 2.43976 9.43374 2.43976 7.96988C2.43976 6.66868 2.76506 6.01807 2.92771 5.53012C3.25301 4.87952 3.41566 4.39157 3.90362 3.90362C4.39157 3.41566 4.87952 3.09036 5.53012 2.92771C6.01807 2.76506 6.66868 2.60241 7.96988 2.43976C9.43374 2.43976 9.92169 2.43976 13.5 2.43976ZM13.5 0C9.75904 0 9.43374 0 7.96988 0C6.50603 0 5.53012 0.325302 4.71687 0.650603C3.90362 0.975905 3.09036 1.46386 2.27711 2.27711C1.46386 3.09036 1.13856 3.74097 0.650603 4.71687C0.325302 5.53012 0.162651 6.50603 0 7.96988C0 9.43374 0 9.92169 0 13.5C0 17.241 0 17.5663 0 19.0301C0 20.494 0.325302 21.4699 0.650603 22.2831C0.975905 23.0964 1.46386 23.9096 2.27711 24.7229C3.09036 25.5361 3.74097 25.8615 4.71687 26.3494C5.53012 26.6747 6.50603 26.8373 7.96988 27C9.43374 27 9.92169 27 13.5 27C17.0783 27 17.5663 27 19.0301 27C20.494 27 21.4699 26.6747 22.2831 26.3494C23.0964 26.0241 23.9096 25.5361 24.7229 24.7229C25.5361 23.9096 25.8615 23.259 26.3494 22.2831C26.6747 21.4699 26.8373 20.494 27 19.0301C27 17.5663 27 17.0783 27 13.5C27 9.92169 27 9.43374 27 7.96988C27 6.50603 26.6747 5.53012 26.3494 4.71687C26.0241 3.90362 25.5361 3.09036 24.7229 2.27711C23.9096 1.46386 23.259 1.13856 22.2831 0.650603C21.4699 0.325302 20.494 0.162651 19.0301 0C17.5663 0 17.241 0 13.5 0Z" fill="#F0EFF3"/>
<path d="M13.5 6.50602C9.59639 6.50602 6.50602 9.59639 6.50602 13.5C6.50602 17.4036 9.59639 20.494 13.5 20.494C17.4036 20.494 20.494 17.4036 20.494 13.5C20.494 9.59639 17.4036 6.50602 13.5 6.50602ZM13.5 18.0542C11.0602 18.0542 8.94578 16.1024 8.94578 13.5C8.94578 11.0602 10.8976 8.94578 13.5 8.94578C15.9398 8.94578 18.0542 10.8976 18.0542 13.5C18.0542 15.9398 15.9398 18.0542 13.5 18.0542Z" fill="#F0EFF3"/>
<path d="M20.6566 7.96988C21.5549 7.96988 22.2831 7.24167 22.2831 6.34338C22.2831 5.44508 21.5549 4.71687 20.6566 4.71687C19.7583 4.71687 19.0301 5.44508 19.0301 6.34338C19.0301 7.24167 19.7583 7.96988 20.6566 7.96988Z" fill="#F0EFF3"/>
</svg>
