<svg width="19" height="21" viewBox="0 0 19 21" fill="none" xmlns="http://www.w3.org/2000/svg">
<path d="M14.8285 20.6309C13.933 20.6309 13.1719 20.3175 12.5451 19.6907C11.9183 19.0639 11.6049 18.3028 11.6049 17.4073C11.6049 17.2461 11.6407 16.9865 11.7123 16.6283L5.34577 12.7331C5.05923 12.9839 4.73642 13.1809 4.37735 13.3241C4.01846 13.4674 3.63387 13.539 3.22358 13.539C2.32814 13.539 1.56702 13.2256 0.94021 12.5988C0.313403 11.972 0 11.2109 0 10.3154C0 9.42001 0.313403 8.65889 0.94021 8.03208C1.56702 7.40527 2.32814 7.09187 3.22358 7.09187C3.63548 7.09187 4.02052 7.16351 4.37869 7.30678C4.73687 7.45005 5.05923 7.64704 5.34577 7.89776L11.7123 4.00261C11.6765 3.87725 11.6497 3.75359 11.6317 3.63163C11.6138 3.50967 11.6049 3.37365 11.6049 3.22358C11.6049 2.32814 11.9183 1.56702 12.5451 0.94021C13.1719 0.313403 13.933 0 14.8285 0C15.7239 0 16.485 0.313403 17.1118 0.94021C17.7386 1.56702 18.052 2.32814 18.052 3.22358C18.052 4.11902 17.7386 4.88014 17.1118 5.50694C16.485 6.13375 15.7239 6.44715 14.8285 6.44715C14.4166 6.44715 14.0315 6.37552 13.6733 6.23225C13.3152 6.08898 12.9928 5.89198 12.7063 5.64126L6.3397 9.53642C6.37552 9.66178 6.40238 9.78544 6.42029 9.9074C6.4382 10.0294 6.44715 10.1654 6.44715 10.3154C6.44715 10.4655 6.4382 10.6015 6.42029 10.7235C6.40238 10.8455 6.37552 10.9691 6.3397 11.0945L12.7063 14.9896C12.9928 14.7389 13.3156 14.5419 13.6747 14.3986C14.0336 14.2554 14.4182 14.1837 14.8285 14.1837C15.7239 14.1837 16.485 14.4971 17.1118 15.124C17.7386 15.7508 18.052 16.5119 18.052 17.4073C18.052 18.3028 17.7386 19.0639 17.1118 19.6907C16.485 20.3175 15.7239 20.6309 14.8285 20.6309ZM14.8285 18.6967C15.1938 18.6967 15.5 18.5732 15.7472 18.326C15.9943 18.0789 16.1179 17.7727 16.1179 17.4073C16.1179 17.042 15.9943 16.7357 15.7472 16.4886C15.5 16.2415 15.1938 16.1179 14.8285 16.1179C14.4631 16.1179 14.1569 16.2415 13.9097 16.4886C13.6626 16.7357 13.539 17.042 13.539 17.4073C13.539 17.7727 13.6626 18.0789 13.9097 18.326C14.1569 18.5732 14.4631 18.6967 14.8285 18.6967ZM3.22358 11.6049C3.58892 11.6049 3.89516 11.4795 4.1423 11.2288C4.38944 10.9781 4.51301 10.6736 4.51301 10.3154C4.51301 9.95727 4.38944 9.65282 4.1423 9.4021C3.89516 9.15138 3.58892 9.02602 3.22358 9.02602C2.85824 9.02602 2.552 9.15138 2.30486 9.4021C2.05772 9.65282 1.93415 9.95727 1.93415 10.3154C1.93415 10.6736 2.05772 10.9781 2.30486 11.2288C2.552 11.4795 2.85824 11.6049 3.22358 11.6049ZM15.7418 4.1423C15.9925 3.89516 16.1179 3.58892 16.1179 3.22358C16.1179 2.85824 15.9943 2.552 15.7472 2.30486C15.5 2.05772 15.1938 1.93415 14.8285 1.93415C14.4631 1.93415 14.1569 2.05772 13.9097 2.30486C13.6626 2.552 13.539 2.85824 13.539 3.22358C13.539 3.58892 13.6644 3.89516 13.9151 4.1423C14.1658 4.38944 14.4703 4.51301 14.8285 4.51301C15.1866 4.51301 15.4911 4.38944 15.7418 4.1423Z" fill="#F0EFF3"/>
</svg>
