<svg width="332" height="226" viewBox="0 0 332 226" fill="none" xmlns="http://www.w3.org/2000/svg">
<rect x="29" y="65" width="86" height="40" rx="7" fill="#171B2E"/>
<rect x="131" y="172" width="177" height="40" rx="7" fill="#F74687"/>
<path d="M163.75 20C167.616 20 170.75 23.134 170.75 27V53C170.75 56.866 167.616 60 163.75 60H36.5C32.634 60 29.5 56.866 29.5 53V33.8486L22 30L29.5566 26.1211C29.9891 22.6701 32.9318 20 36.5 20H163.75Z" fill="#171B2E"/>
<path d="M173.25 127C169.384 127 166.25 130.134 166.25 134V160C166.25 163.866 169.384 167 173.25 167H300.5C304.366 167 307.5 163.866 307.5 160V140.849L315 137L307.443 133.121C307.011 129.67 304.068 127 300.5 127H173.25Z" fill="#F74687"/>
</svg>
