<svg width="332" height="226" viewBox="0 0 332 226" fill="none" xmlns="http://www.w3.org/2000/svg">
<path d="M179.421 92.6659C180.723 88.9956 184.769 87.093 188.426 88.4322L207.26 95.3298C208.883 95.9243 210.229 97.0986 211.038 98.6264L213.464 103.207C214.274 104.735 215.619 105.909 217.243 106.504L265.689 124.246C269.29 125.565 271.16 129.536 269.882 133.152L251.548 185.032C250.249 188.707 246.2 190.613 242.54 189.273L162.863 160.092C159.26 158.773 157.39 154.797 158.673 151.18L179.421 92.6659Z" fill="#F7347E"/>
<path d="M49.6904 50.6852C48.7597 46.9039 51.0939 43.0898 54.8846 42.1981L74.4088 37.6053C76.0917 37.2094 77.8616 37.4503 79.3775 38.2816L83.9222 40.7738C85.4381 41.6051 87.208 41.846 88.891 41.4502L139.113 29.6359C142.846 28.7578 146.591 31.0468 147.511 34.7697L160.72 88.1859C161.655 91.969 159.321 95.7877 155.527 96.6801L72.9294 116.11C69.1935 116.989 65.4467 114.696 64.5294 110.969L49.6904 50.6852Z" fill="#171B2E"/>
<path d="M179.421 92.6659C180.723 88.9956 184.769 87.093 188.426 88.4322L207.26 95.3298C208.883 95.9243 210.229 97.0986 211.038 98.6264L213.464 103.207C214.274 104.735 215.619 105.909 217.243 106.504L265.689 124.246C269.29 125.565 271.16 129.536 269.882 133.152L251.547 185.032C250.249 188.707 246.2 190.613 242.54 189.273L162.863 160.092C159.26 158.773 157.39 154.797 158.673 151.18L179.421 92.6659Z" fill="#F7347E"/>
<path d="M49.6904 50.6852C48.7597 46.9039 51.0939 43.0898 54.8846 42.1981L74.4088 37.6053C76.0917 37.2094 77.8616 37.4503 79.3775 38.2816L83.9222 40.7738C85.4381 41.6051 87.208 41.846 88.891 41.4502L139.113 29.6359C142.846 28.7578 146.591 31.0468 147.511 34.7697L160.72 88.1859C161.655 91.969 159.321 95.7877 155.527 96.6801L72.9294 116.11C69.1935 116.989 65.4467 114.696 64.5294 110.969L49.6904 50.6852Z" fill="#171B2E"/>
<g opacity="0.58" filter="url(#filter0_f_579_2806)">
<rect x="176.999" y="99.0659" width="99.6451" height="65.308" rx="7" transform="rotate(20.1145 176.999 99.0659)" fill="white"/>
</g>
<g opacity="0.58" filter="url(#filter1_f_579_2806)">
<rect x="51.48" y="58.6111" width="99.6451" height="65.308" rx="7" transform="rotate(-13.2375 51.48 58.6111)" fill="white"/>
</g>
<mask id="path-7-inside-1_579_2806" fill="white">
<path d="M182.783 105.65C184.113 102.02 188.133 100.155 191.763 101.484L258.705 126.001C262.335 127.33 264.2 131.351 262.871 134.981L248.499 174.223C247.169 177.853 243.149 179.718 239.518 178.389L172.577 153.872C168.947 152.543 167.082 148.522 168.411 144.892L182.783 105.65Z"/>
</mask>
<path d="M182.783 105.65C184.113 102.02 188.133 100.155 191.763 101.484L258.705 126.001C262.335 127.33 264.2 131.351 262.871 134.981L248.499 174.223C247.169 177.853 243.149 179.718 239.518 178.389L172.577 153.872C168.947 152.543 167.082 148.522 168.411 144.892L182.783 105.65Z" fill="white"/>
<path d="M182.783 105.65C184.682 100.464 190.426 97.7998 195.612 99.6991L256.919 122.152C262.105 124.051 264.77 129.795 262.871 134.981C263.63 132.907 261.303 130.147 257.673 128.818L190.732 104.301C187.102 102.972 183.543 103.576 182.783 105.65ZM182.783 105.65M246.092 180.796L166.004 151.465L246.092 180.796M246.092 180.796M166.004 151.465L185.19 99.0771L166.004 151.465M166.004 151.465M265.278 128.408L246.092 180.796L265.278 128.408" fill="#C9C9C9" mask="url(#path-7-inside-1_579_2806)"/>
<mask id="path-9-inside-2_579_2806" fill="white">
<path d="M59.6375 59.6827C58.7523 55.9194 61.0853 52.151 64.8486 51.2657L134.244 34.9413C138.007 34.056 141.775 36.3891 142.661 40.1524L152.23 80.8327C153.116 84.596 150.782 88.3644 147.019 89.2496L77.6241 105.574C73.8608 106.459 70.0924 104.126 69.2071 100.363L59.6375 59.6827Z"/>
</mask>
<path d="M59.6375 59.6827C58.7523 55.9194 61.0853 52.151 64.8486 51.2657L134.244 34.9413C138.007 34.056 141.775 36.3891 142.661 40.1524L152.23 80.8327C153.116 84.596 150.782 88.3644 147.019 89.2496L77.6241 105.574C73.8608 106.459 70.0924 104.126 69.2071 100.363L59.6375 59.6827Z" fill="white"/>
<path d="M59.6375 59.6827C58.3729 54.3066 61.7058 48.9231 67.0819 47.6585L130.637 32.7079C136.013 31.4433 141.396 34.7763 142.661 40.1524C142.155 38.0019 138.694 36.9763 134.931 37.8616L65.5356 54.186C61.7723 55.0713 59.1317 57.5322 59.6375 59.6827ZM59.6375 59.6827M153.833 87.6467L70.8101 107.177L153.833 87.6467M153.833 87.6467M70.8101 107.177L58.0346 52.8687L70.8101 107.177M70.8101 107.177M141.058 33.3383L153.833 87.6467L141.058 33.3383" fill="#C9C9C9" mask="url(#path-9-inside-2_579_2806)"/>
<rect x="176.459" y="100.541" width="99.6451" height="65.308" rx="7" transform="rotate(20.1145 176.459 100.541)" fill="#F7347E"/>
<rect x="51.546" y="58.8914" width="99.6451" height="65.308" rx="7" transform="rotate(-13.2375 51.546 58.8914)" fill="#171B2E"/>
<defs>
<filter id="filter0_f_579_2806" x="140.218" y="84.7444" width="144.67" height="124.235" filterUnits="userSpaceOnUse" color-interpolation-filters="sRGB">
<feFlood flood-opacity="0" result="BackgroundImageFix"/>
<feBlend mode="normal" in="SourceGraphic" in2="BackgroundImageFix" result="shape"/>
<feGaussianBlur stdDeviation="8.15" result="effect1_foregroundBlur_579_2806"/>
</filter>
<filter id="filter1_f_579_2806" x="36.5954" y="20.9087" width="141.722" height="116.16" filterUnits="userSpaceOnUse" color-interpolation-filters="sRGB">
<feFlood flood-opacity="0" result="BackgroundImageFix"/>
<feBlend mode="normal" in="SourceGraphic" in2="BackgroundImageFix" result="shape"/>
<feGaussianBlur stdDeviation="8.15" result="effect1_foregroundBlur_579_2806"/>
</filter>
</defs>
</svg>
